<svg width="656" height="32" viewBox="0 0 656 32" fill="none" xmlns="http://www.w3.org/2000/svg">
<g clip-path="url(#clip0_408_20066)">
<g clip-path="url(#clip1_408_20066)">
<rect width="32" height="32" rx="16" fill="white"/>
<path d="M35.2254 15.7994L25.6421 -0.799404L6.41667 -0.765481L1.58635 7.55624L20.8303 7.51161L16 15.8333L-3.22542 15.8673L6.35791 32.4661L25.5833 32.4322L30.4137 24.1104L11.1697 24.1551L16 15.8333L35.2254 15.7994Z" fill="#357AF6"/>
</g>
</g>
<path d="M40.864 8.7V11.772H49.264L40.648 23.124V25.5H54.424V22.428H45.592L54.208 11.076V8.7H40.864ZM63.3503 8.7H56.5103V25.5H60.1103V19.86H63.3503C64.5503 19.86 65.6063 19.644 66.5183 19.188C67.4303 18.732 68.1503 18.084 68.6543 17.244C69.1583 16.404 69.4223 15.42 69.4223 14.292C69.4223 13.188 69.1583 12.204 68.6543 11.34C68.1503 10.5 67.4303 9.852 66.5183 9.396C65.6063 8.94 64.5503 8.7 63.3503 8.7ZM60.1103 16.86V11.7H63.0143C63.8543 11.7 64.5263 11.94 65.0303 12.396C65.5103 12.876 65.7743 13.5 65.7743 14.292C65.7743 15.084 65.5103 15.708 65.0303 16.164C64.5263 16.644 63.8543 16.86 63.0143 16.86H60.1103ZM73.2289 24.876C74.2129 25.404 75.3649 25.644 76.6609 25.644C77.9569 25.644 79.0849 25.404 80.0689 24.876C81.0529 24.348 81.8209 23.628 82.3489 22.668C82.8769 21.708 83.1649 20.604 83.1649 19.332C83.1649 18.084 82.8769 16.98 82.3489 16.02C81.8209 15.06 81.0529 14.34 80.0689 13.812C79.0849 13.284 77.9569 13.02 76.6609 13.02C75.3649 13.02 74.2129 13.284 73.2289 13.812C72.2449 14.34 71.4769 15.06 70.9489 16.02C70.4209 16.98 70.1569 18.084 70.1569 19.332C70.1569 20.58 70.4209 21.684 70.9489 22.644C71.4769 23.604 72.2449 24.348 73.2289 24.876ZM78.8929 21.9C78.3409 22.572 77.5969 22.884 76.6609 22.884C75.7249 22.884 74.9809 22.572 74.4289 21.9C73.8769 21.252 73.6129 20.388 73.6129 19.332C73.6129 18.276 73.8769 17.436 74.4289 16.764C74.9809 16.116 75.7249 15.78 76.6609 15.78C77.5969 15.78 78.3409 16.116 78.8929 16.764C79.4449 17.436 79.7329 18.276 79.7329 19.332C79.7329 20.388 79.4449 21.252 78.8929 21.9ZM87.6938 21.396H84.4778C84.5258 22.716 85.1018 23.748 86.1818 24.516C87.2378 25.284 88.6298 25.644 90.3578 25.644C91.4618 25.644 92.4218 25.5 93.2618 25.164C94.1018 24.828 94.7498 24.372 95.2298 23.748C95.7098 23.148 95.9498 22.452 95.9498 21.636C95.9498 20.388 95.4938 19.5 94.6058 18.972C93.7178 18.444 92.4458 18.084 90.7898 17.892C89.9978 17.82 89.4458 17.748 89.1098 17.676C88.7738 17.628 88.4858 17.508 88.2938 17.364C88.0778 17.22 87.9818 17.004 87.9818 16.716C87.9818 16.332 88.1738 15.996 88.5578 15.756C88.9418 15.516 89.4698 15.396 90.1178 15.396C90.7898 15.396 91.3658 15.564 91.7978 15.852C92.2298 16.14 92.4938 16.524 92.5418 16.98H95.7578C95.6618 15.732 95.1098 14.772 94.0778 14.052C93.0458 13.356 91.7018 12.996 90.0218 12.972C88.9658 12.972 88.0538 13.14 87.2618 13.476C86.4458 13.812 85.8218 14.292 85.3898 14.916C84.9578 15.54 84.7418 16.236 84.7418 17.028C84.7418 17.844 84.9578 18.468 85.3898 18.948C85.8218 19.428 86.3978 19.788 87.1178 20.004C87.8378 20.244 88.7258 20.412 89.8298 20.556C90.6218 20.652 91.1978 20.748 91.5578 20.82C91.8938 20.892 92.1818 21.012 92.3738 21.156C92.5658 21.324 92.6618 21.564 92.6618 21.876C92.6618 22.308 92.4458 22.644 92.0378 22.884C91.6058 23.124 91.0538 23.22 90.3338 23.22C89.5658 23.22 88.9658 23.052 88.4858 22.716C88.0058 22.38 87.7418 21.948 87.6938 21.396ZM98.0901 22.212C97.7061 22.596 97.5141 23.076 97.5141 23.652C97.5141 24.228 97.7061 24.708 98.0901 25.092C98.4741 25.476 98.9541 25.644 99.5541 25.644C100.13 25.644 100.61 25.476 100.994 25.092C101.378 24.708 101.594 24.228 101.594 23.652C101.594 23.076 101.378 22.596 100.994 22.212C100.61 21.828 100.13 21.636 99.5541 21.636C98.9541 21.636 98.4741 21.828 98.0901 22.212Z" fill="#141414"/>
<defs>
<clipPath id="clip0_408_20066">
<rect width="32" height="32" rx="16" fill="white"/>
</clipPath>
<clipPath id="clip1_408_20066">
<rect width="32" height="32" rx="16" fill="white"/>
</clipPath>
</defs>
</svg>
